<?xml version="1.0" encoding="UTF-8" standalone="no"?>
<svg
   xmlns:dc="http://purl.org/dc/elements/1.1/"
   xmlns:cc="http://creativecommons.org/ns#"
   xmlns:rdf="http://www.w3.org/1999/02/22-rdf-syntax-ns#"
   xmlns:svg="http://www.w3.org/2000/svg"
   xmlns="http://www.w3.org/2000/svg"
   xmlns:sodipodi="http://sodipodi.sourceforge.net/DTD/sodipodi-0.dtd"
   xmlns:inkscape="http://www.inkscape.org/namespaces/inkscape"
   version="1.1"
   id="svg2"
   xml:space="preserve"
   width="2668.3066"
   height="1252.5067"
   viewBox="0 0 2668.3066 1252.5067"
   sodipodi:docname="Great Lakes_Management with global minset_gray_250614.eps"><metadata
     id="metadata8"><rdf:RDF><cc:Work
         rdf:about=""><dc:format>image/svg+xml</dc:format><dc:type
           rdf:resource="http://purl.org/dc/dcmitype/StillImage" /></cc:Work></rdf:RDF></metadata><defs
     id="defs6" /><sodipodi:namedview
     pagecolor="#ffffff"
     bordercolor="#666666"
     borderopacity="1"
     objecttolerance="10"
     gridtolerance="10"
     guidetolerance="10"
     inkscape:pageopacity="0"
     inkscape:pageshadow="2"
     inkscape:window-width="640"
     inkscape:window-height="480"
     id="namedview4" /><g
     id="g10"
     inkscape:groupmode="layer"
     inkscape:label="ink_ext_XXXXXX"
     transform="matrix(1.3333333,0,0,-1.3333333,0,1252.5067)"><g
       id="g12"
       transform="scale(0.1)"><path
         d="m 1253.19,5365.86 c 316.81,-33.74 733.57,-67.49 1049.9,-100.98 -364.98,-1038.21 1166.24,-1346.93 4557.17,-300 3390.94,1046.94 5538.74,534.76 5538.74,534.76 0,0 2964.7,-427.93 5106.8,-1207.01 12.7,-129.34 5.2,-503.81 5.2,-503.81 l -16250.5,-5.24 -7.31,1582.28"
         style="fill:#66c430;fill-opacity:1;fill-rule:nonzero;stroke:none"
         id="path14" /><path
         d="m 11332.5,8883.59 h 450.9 c -30.8,-32.62 -51.9,-106.7 -63.8,-223.77 -12.9,-116.83 -18.4,-365.16 -18.4,-745.93 v -136.55 c 0,-237.75 2.2,-435.64 7.8,-594.93 4.6,-158.58 12.8,-260.25 22.5,-304.53 22,-1.35 44,-2.53 68.9,-3 24.2,-0.7 59.7,-0.7 106.4,-0.7 172.3,0 305.8,17.92 399.5,52.84 93.2,35.3 169.4,95.26 227.7,179.23 l -72.9,-332.58 c -45.5,-8.02 -96.5,-14.92 -152.9,-19.3 -56.1,-4.55 -116.2,-6.63 -179.1,-6.63 -50,0 -151,0.9 -302.1,2.99 -151.5,2.51 -277.8,3.64 -379.7,3.64 h -114.8 c 30.4,32.62 51.4,106.98 63.9,223.23 12.8,116.94 18.8,367.1 18.8,749.72 v 136.08 c 0,417.03 -6,683.72 -18.8,798.93 -12.5,114.73 -33.5,188.64 -63.9,221.26 M 13360,7799.94 h 671.2 l -313.1,858.27 z m -740.1,-1045.57 c 101,121.2 202,272.67 303.5,455.38 101.9,182.71 208.8,406.44 321.4,669.93 94,219.66 171.7,415.46 232.3,588.71 61.5,172.6 91.8,276.79 91.8,311.45 0,17.21 -1.9,33.75 -6,50.97 -5.1,16.74 -11,34.39 -19.7,52.78 h 411.8 c 161.1,-536.4 312.6,-988.74 455.5,-1356.88 143.1,-369.06 265.8,-626.59 368.2,-772.34 h -363.2 l -334.2,922.64 h -775 l -142.4,-348.84 -3.2,-8.5 c -88.6,-212.29 -133.1,-366.96 -133.1,-462.92 0,-15.63 0.8,-31.89 4.1,-48.41 2.3,-16.32 6.9,-34.67 11.9,-53.97 z m 2677.5,1166.16 c 42.7,3.9 91,25.5 144.2,63.59 52.4,38.78 119.4,101.68 200.6,187.52 196.5,212.07 327.4,362.16 391.7,450.04 64.2,87.93 96.4,155.38 96.4,202.01 v 16.05 c 0,11.5 -1,20.43 -2.4,26.64 -1.8,5.94 -3.2,11.71 -5.9,17.21 h 439.8 c -71.6,-45.45 -192.8,-154.23 -364.5,-324.98 -170.8,-171.68 -371.4,-385.15 -602.3,-641.29 l 535.3,-757.63 c 11,-15.71 25.7,-36.96 45.5,-65.15 118.4,-169.87 215.2,-282.74 290.1,-340.17 h -329.2 c -33.1,0 -59.7,4.86 -79.4,14.06 -18.8,10.32 -37.2,26.59 -53.3,48.85 l -640.9,989.42 h -65.7 v -228.8 c 0,-325.68 5.5,-535.23 17.9,-629.89 12.4,-94.69 33.1,-159.19 63.9,-193.64 h -450.4 c 30.8,32.62 51.4,106.98 63.3,223.23 12.8,116.94 19.4,366.62 19.4,749.72 v 136.08 c 0,417.03 -6.6,683.72 -19.4,798.93 -11.9,114.73 -32.5,188.64 -63.3,221.26 h 450.4 c -30.8,-34.87 -51.5,-98.89 -63.9,-193.02 -12.4,-94.3 -17.9,-303.64 -17.9,-627.93 z m 1368.2,-1166.16 c 30.8,32.62 51.4,106.98 63.8,223.23 12.9,116.94 19.3,366.62 19.3,749.72 v 136.08 c 0,417.03 -6.4,683.72 -19.3,798.93 -12.4,114.73 -33,188.64 -63.8,221.26 h 206.6 c 146.5,0 313.6,1.62 500.4,5.04 185.5,3.21 299.4,4.6 339.4,4.6 2.2,0 8.6,-0.27 18.8,-1.39 34.4,-1.39 66.5,-1.61 97.7,-1.61 l 25.8,-313.05 c -25.8,67.93 -77.6,115.47 -156.6,142.27 -78.1,27.33 -227.7,41.13 -447.6,41.13 h -184.6 c -12,-47.07 -19.2,-124.15 -24.4,-232.06 -5,-107.15 -6.8,-262.79 -6.8,-465.88 v -109.97 c 26.6,-2.29 56.9,-3.69 92.2,-5.58 34.5,-0.83 90.1,-1.06 167.7,-1.06 129.8,0 240.1,2.95 327.8,8.73 89,6.41 168.9,15.57 239.1,27.76 -60.5,-69.79 -141.3,-119.12 -240.5,-148.27 -100.6,-29.62 -267.3,-43.94 -500.5,-43.94 -5.9,0 -18.3,0.79 -37.1,1.96 -18.4,0.65 -34.9,1.33 -48.7,1.33 v -215.7 c 0,-203.15 1.8,-358.73 6.8,-467.74 5.2,-108.58 12.4,-185.92 24.4,-232.28 h 190.6 c 219.4,0 384.2,17.47 494,52.35 110.6,35.57 196.4,94.08 256.6,176.02 l -56,-332.58 c -44.5,-8.02 -95.6,-14.92 -152,-19.3 -57,-4.55 -117.1,-6.63 -179.5,-6.63 -51,0 -152,0.9 -302.6,2.99 -150.1,2.51 -276.3,3.64 -377.9,3.64 z m 1548.6,85.42 v 361.94 c 65.7,-108.79 149.7,-192.81 251.1,-250.43 102.8,-58.29 218.1,-87.18 347.1,-87.18 128.6,0 232.8,38.34 313.6,113.48 80.4,76.08 121.2,172.95 121.2,290.45 0,92.47 -27,172.81 -81.7,243.26 -53.7,70.01 -145.1,140.29 -274.1,209.08 -9.1,5.98 -24.3,14.23 -44.1,24.59 -373.7,204.27 -561,411.74 -561,622.43 0,163.44 63.8,296.78 191.4,400.02 127.7,103.32 294.4,154.95 499.2,154.95 66.9,0 138.5,-2.09 217.6,-6.9 78,-4.38 123.9,-5.94 136.7,-5.94 4.2,0 12.8,-0.48 26.7,-1.38 13.2,-0.7 24.8,-1.83 34.9,-1.83 h 84.5 v -345.67 c -42.3,70.22 -101.1,123.48 -176.4,160.66 -75.3,36.49 -162.5,54.87 -263.5,54.87 -138.2,0 -247.9,-30.32 -327.4,-90.44 -80.2,-60.6 -120.3,-142.76 -120.3,-244.86 0,-152.43 147,-306.2 439.5,-460.41 10,-4.6 17.4,-7.59 21.1,-9.68 184.1,-97.28 315.8,-193.67 393.9,-288.93 79.8,-95 118.9,-202.44 118.9,-322.94 0,-177.89 -73,-330.06 -219.9,-456.29 -146.1,-125.54 -326.4,-188.87 -540.9,-188.87 -85.3,0 -176.3,10.59 -272.7,31.24 -95.9,20.64 -201.6,51.88 -315.4,94.78"
         style="fill:#231f20;fill-opacity:1;fill-rule:nonzero;stroke:none"
         id="path16" /><path
         d="m 3080.13,7823.02 h 446.05 c -27.98,-38.78 -48.2,-98.9 -59.22,-181.32 -11.71,-81.24 -17.01,-222.62 -17.01,-425.27 0,-134.03 2.31,-232.76 8.28,-295.18 4.83,-62.69 14.46,-112.91 27.56,-150.56 -115.71,-6.64 -258.5,-17.66 -427.44,-33.06 -169.42,-16.05 -279.63,-23.86 -330.82,-23.86 -363.84,0 -642.98,90.23 -837.18,270.85 -194.67,180.37 -291.56,439.07 -291.56,776.06 0,358.61 118.5,641.17 356.29,849.34 237.58,208.16 561.3,312.09 972.63,312.09 73.24,0 154.07,-3.19 241.49,-9.84 87.47,-5.86 179.54,-16.05 275.5,-28.68 v -389.25 c -80.56,92.04 -175.62,161.35 -282.82,206.98 -107.44,46.41 -228.18,68.63 -361.11,68.63 -264.01,0 -472.65,-85.81 -626.23,-256.79 -152.9,-171.43 -229.78,-404.9 -229.78,-700.25 0,-294.01 83.34,-523.09 250.9,-687.62 166.21,-165.22 398.28,-247.2 694.66,-247.2 48.2,0 92.01,1.85 131.97,6.25 39.49,4.33 77.62,10.32 114.11,19.25 9.15,56.22 15.83,116.13 19.74,179.93 3.91,63.8 6.42,134.25 6.42,212.55 0,151.22 -6.42,268.51 -19.74,350.93 -12.41,83.06 -33.53,142.01 -62.69,176.02 m 912.27,1060.57 c 129.95,0 275.25,3.3 435.03,11.72 159.75,6.85 255.72,11.1 286.48,11.1 167.56,0 294.73,-36.35 381.53,-107.96 86.74,-72.31 129.42,-177.63 129.42,-316.97 0.53,-136.55 -42.16,-257.99 -128.06,-363.75 -85.81,-106.75 -210.74,-194.85 -376.46,-263.95 l 475.2,-661.73 c 79.41,-109.23 151.95,-199.88 218.06,-273.45 66.56,-72.61 126.68,-127.96 179.53,-164.23 h -314.02 c -42.26,0 -74.89,5.78 -96.93,16.79 -22.91,11.24 -45.46,34.4 -70.67,68.84 l -567.02,798.23 c -41.56,58.3 -79.87,96.64 -115.23,115.22 -36.05,18.12 -82.17,27.58 -138.18,27.58 h -25.47 v -202.67 c 0,-325.45 5.72,-535.69 18.13,-630.13 12.58,-94.91 33.28,-159.16 63.78,-193.86 h -450.61 c 30.55,32.62 51.63,106.75 63.6,223.57 13.28,116.82 19.27,366.76 19.27,749.13 v 136.12 c 0,417.24 -5.99,683.93 -19.27,799.14 -11.97,114.99 -33.05,188.43 -63.6,221.26 z m 273.21,-973.12 c 19,-3.91 39.91,-7.12 62.64,-9.46 22.96,-2.03 48.21,-3.28 76.45,-3.28 161.4,0 284.66,42.11 371.64,126.82 86.35,83.71 129.48,204.7 129.48,361.42 0,130.4 -33.51,227.96 -98.71,291.5 -66.12,63.85 -166.21,95.95 -302.11,95.95 -52.79,0 -94.09,-0.69 -124.42,-2.08 -29.37,-1.73 -57.83,-4.61 -84.26,-8.03 -11.23,-47.49 -19.04,-122.8 -24.07,-225.6 -4.6,-103.5 -6.64,-249.95 -6.64,-439.08 v -35.09 z m 1384.44,-1156.1 c 31.24,32.62 51.37,106.75 64.3,223.57 12.41,116.82 18.31,366.1 18.31,749.13 v 136.12 c 0,417.24 -5.9,683.93 -18.31,799.14 -12.93,114.99 -33.06,188.43 -64.3,221.26 h 206.61 c 146.47,0 313.59,1.62 499.98,5.04 185.95,2.98 299.8,4.6 339.71,4.6 1.83,0 8.33,-0.44 18.84,-1.62 34,-1.16 67.07,-1.38 97.78,-1.38 l 26.21,-313.27 c -26.21,68.15 -78.1,115.69 -157.06,142.76 -78.01,27.06 -227.26,40.6 -447.66,40.6 h -185 c -11.01,-46.81 -18.83,-123.89 -23.86,-231.8 -5.03,-107.15 -7.38,-262.79 -7.38,-465.67 v -110.39 c 27.6,-2.08 57.88,-3.65 92.77,-5.03 34.45,-0.95 90.41,-1.4 167.12,-1.4 130.85,0 240.09,2.78 328.69,8.95 88.68,5.98 168.51,15.35 238.8,27.54 -60.66,-69.97 -141.43,-119.33 -241.05,-148.27 -100.05,-29.62 -266.73,-43.6 -499.98,-43.6 -5.99,0 -18.4,0.23 -36.7,1.4 -19.36,0.69 -35.42,1.55 -49.65,1.55 v -215.7 c 0,-203.36 2.35,-358.95 7.38,-467.74 5.03,-108.58 12.85,-186.18 23.86,-232.07 h 190.99 c 219.97,0 383.88,17.26 494.51,52.14 110.12,35.57 195.58,94.3 255.72,176.02 l -56.06,-332.58 c -44.51,-8.02 -95.01,-15.12 -151.93,-19.3 -56.93,-4.33 -116.62,-6.63 -179.01,-6.63 -50.58,0 -152.02,0.69 -302.58,3.21 -150.2,2.29 -276.45,3.42 -378.76,3.42 z m 2089.47,1045.84 h 671.18 l -313.59,857.74 z M 6999.37,6754.37 c 101,120.98 201.56,272.67 302.99,455.38 101.97,182.71 208.95,406.23 321.41,669.75 94.15,219.84 171.73,415.64 232.8,588.89 61.53,172.82 91.38,276.79 91.38,311.24 0,17.65 -1.91,33.96 -6.42,51.18 -4.17,16.87 -10.58,34.39 -19.36,52.78 h 412.35 c 160.69,-536.4 312.2,-988.74 454.94,-1357.1 143.27,-368.84 265.87,-626.37 368.7,-772.12 h -363.14 l -334.25,922.47 h -775.48 l -142.31,-348.67 -3.2,-8.5 c -89.04,-212.29 -133.11,-367.18 -133.11,-462.92 0,-15.63 1.3,-31.89 4.08,-48.41 2.78,-16.53 6.85,-34.67 12.4,-53.97 z m 2548.13,0 c 30.28,32.62 51.88,104.19 63.79,217.15 12.83,112.92 19.26,351.83 19.26,719.71 v 128.45 c 0,179.36 -1.82,339.08 -5.47,479.1 -3.2,140.24 -7.8,275.45 -14.23,404.63 h -352.12 c -78.1,0 -141.44,-6.64 -190.12,-19.27 -48.67,-13.09 -94.59,-34.18 -139.53,-63.32 l 80.35,262.77 h 1686.37 c -38.1,-60.38 -84.6,-103.96 -139.7,-130.82 -55.1,-26.63 -127.6,-39.26 -219,-39.26 l -403.46,-3.2 c -6.5,-147.36 -11.1,-297.22 -13.8,-449.96 -3.2,-153.64 -4.17,-315.26 -4.17,-486 0,-418.64 6.43,-684.84 19.26,-799.18 11.55,-115.31 32.64,-188.18 63.45,-220.8 H 9547.5"
         style="fill:#231f20;fill-opacity:1;fill-rule:nonzero;stroke:none"
         id="path18" /><path
         d="M 19987.3,3791.88 H 1232.48 V 9368.77 H 19987.3 Z"
         style="fill:none;stroke:#231f20;stroke-width:50;stroke-linecap:butt;stroke-linejoin:miter;stroke-miterlimit:4;stroke-dasharray:none;stroke-opacity:1"
         id="path20" /><path
         d="M 4004.6,5858.89 C 2566.98,6560.47 602.113,6482.75 125.629,5536.58 -157.645,4996.47 -88.4805,3578.56 1694.08,3770.54 c 1615.75,14.05 4747.53,1392.6 8581.62,1345.36 1885.6,103.24 4957.6,-380.61 6162.9,-1098.57 l 340.6,-200.56 c 1066.4,0.67 2142.7,-1.12 3208.7,0 -25.7,100.74 -115.5,201.24 -191.4,301.97 -1793.2,2185.15 -9337.8,3418.68 -14667.79,846.35 -2974.26,-1173.95 -3347.1,644.88 -1124.11,893.8"
         style="fill:#33bdf2;fill-opacity:1;fill-rule:nonzero;stroke:none"
         id="path22" /><path
         d="M 2082.77,555.391 H 1749.13 L 1729.02,451.27 h 209.9 l -58.23,-307.368 c -38.36,-16.941 -96.38,-29.281 -157.58,-29.281 -229.75,0 -329.32,131.57 -329.32,330.699 0,140.692 58.49,287.692 154.83,378.18 85.66,81.313 197.33,125.582 319.72,125.582 93.66,0 163.96,-18.289 217.4,-44.269 l 41.56,106.867 c -30.59,18.19 -116.44,47.45 -243.42,47.45 -165.34,0 -313.77,-56.62 -424.09,-152.939 -133.11,-119.75 -202.08,-298.781 -202.08,-470.019 0,-102.723 26.02,-214.172 104.11,-301.43 78.11,-87.2107 191.37,-128.81231 336.64,-128.81231 121.03,0 231.09,30.57031 290.91,55.25001 z M 2337.41,16.9023 2545.45,1103.42 H 2418.47 L 2211.82,16.9023 Z m 675.03,757.7187 c -240.22,0 -410.11,-226.57 -410.11,-470.012 C 2602.33,137.48 2706.43,0 2891.65,0 c 248.04,0 410.41,237.02 410.41,465.441 0,157.52 -89.09,309.18 -289.62,309.18 z m -13.68,-101.43 c 133.37,0 173.13,-120.582 173.13,-206.378 0,-173.192 -113.31,-365.911 -263.54,-365.911 -108.52,0 -174.5,87.25 -174.5,208.289 -1.34,169.969 105.73,364 264.91,364"
         style="fill:#656263;fill-opacity:1;fill-rule:nonzero;stroke:none"
         id="path24" /><path
         d="M 3622.23,1103.42 3461.4,305.992 c -6.13,-35.14 -12.3,-79.41 -12.3,-114.633 C 3449.1,53.4297 3547.29,0 3677.21,0 c 297.11,0 460.65,281.301 460.65,507.902 0,131.969 -61.2,266.719 -223.35,266.719 -99.58,0 -194.36,-52.051 -260.35,-151.66 h -2.93 l 97.92,480.459 z M 3605.3,380.902 c 36.78,174.489 150.02,287.739 260.34,287.739 100.91,0 140.66,-85.379 140.66,-177.211 0,-163.957 -116.22,-391.8284 -307.6,-391.8284 -79.72,0 -119.42,39.7184 -119.42,110.0504 -1.38,38.34 3.2,68.969 9.11,93.161 l 16.91,78.089"
         style="fill:#656263;fill-opacity:1;fill-rule:nonzero;stroke:none"
         id="path26" /><path
         d="m 4864.04,16.9023 c -3.2,82.6993 7.76,214.1607 31.99,342.5197 l 75.35,385.937 c -50.71,16.922 -128.79,29.262 -199.15,29.262 -322.88,0 -512.87,-272.68 -512.87,-529.82 C 4259.36,104.18 4342.01,0 4472.18,0 c 105.49,0 206.65,54.8008 287.76,208.27 h 3.19 C 4753.98,131.531 4746.21,61.1797 4746.21,16.9023 Z M 4785.96,439.371 C 4749.4,241.582 4623.8,104.18 4518.07,104.18 c -97.99,0 -126.99,80.793 -126.99,163.492 1.64,205.09 157.58,405.519 348.74,405.519 42.9,0 70.79,-5.871 89.09,-10.531 z M 5211.66,16.9023 5419.85,1103.42 H 5292.88 L 5086.49,16.9023 h 125.17"
         style="fill:#656263;fill-opacity:1;fill-rule:nonzero;stroke:none"
         id="path28" /><path
         d="M 6767.25,16.9023 6899.22,1048.69 h -165.3 L 6413.77,453.09 C 6369.49,367.18 6325.1,275.43 6292.65,198.68 h -4.49 c -1.38,76.75 -13.71,169.902 -24.25,257.613 L 6182.6,1048.69 H 6020.48 L 5752.36,16.9023 h 119.73 l 140.62,557.2067 c 24.69,97.704 56.63,253.973 79.51,348.911 h 3.19 c 5.95,-105.918 16.91,-225.137 31.94,-344.34 l 76.73,-555.8284 h 97.73 l 306.52,567.6404 c 56.63,106.008 113.25,228.43 160.73,332.528 h 5.95 C 6754.9,823.5 6732.02,671.813 6718.39,574.109 L 6644.84,16.9023 h 122.41"
         style="fill:#656263;fill-opacity:1;fill-rule:nonzero;stroke:none"
         id="path30" /><path
         d="M 7135.32,16.9023 7277.84,757.711 H 7150.42 L 7008.43,16.9023 Z m 111.96,867.7967 c 48.86,0 83.99,35.211 85.37,85.883 0,45.668 -28.74,79.398 -74.93,79.398 -46.09,0 -83.98,-36.92 -83.98,-85.89 0,-45.559 28.74,-79.391 73.54,-79.391 z m 269.5,-867.7967 67.07,359.4567 c 33.84,183.602 162.62,292.282 252.57,292.282 87.28,0 116.53,-54.828 116.53,-129.661 0,-31.078 -4.58,-66.218 -10.53,-95.019 L 7861.11,16.9023 h 126.98 l 82.69,431.6097 c 7.77,39.699 13.64,87.258 13.64,119.218 0,156.219 -99.52,206.891 -188.1,206.891 -108.76,0 -208.29,-58.43 -274.07,-162.609 h -3.18 l 18.73,145.699 h -113.35 c -9.06,-61.211 -18.64,-133.379 -35.13,-216.07 L 7389.79,16.9023 Z M 8899.29,1103.42 8833.51,748.582 c -32.03,15.059 -84.07,26.039 -131.55,26.039 -261.73,0 -457.67,-242.129 -457.67,-505.141 C 8244.29,117.82 8322.4,0 8466.31,0 c 105.49,0 199.14,58 266.21,163.563 h 3.2 L 8715.68,16.9023 h 116.46 c 4.57,71.7383 16.92,157.5277 31.94,233.8597 L 9026.7,1103.42 Z M 8763.17,382.75 c -31.94,-167.23 -149.86,-278.57 -248,-278.57 -108.69,0 -139.33,93.133 -139.33,182.23 0,197.231 137.94,385.403 315.59,385.403 53.43,0 96.43,-13.641 122.41,-30.563 z M 9043.62,52.043 c 33.75,-25.9805 104.11,-50.69144 183.62,-50.69144 156.14,0 283.55,87.28904 283.55,243.44944 0,82.672 -56.63,147.078 -139.23,194.57 -66.3,36.512 -101.43,70.34 -101.43,123.77 0,64.402 55.25,111.949 131.98,111.949 54.82,0 102.29,-18.277 128.36,-33.84 l 35.14,96.352 c -27.37,18.308 -87.19,37.019 -154.34,37.019 -156.26,0 -268.12,-99.531 -268.12,-229.691 0,-74.918 47.48,-140.688 133.37,-188.168 76.29,-43.012 102.28,-78.141 102.28,-136.59 0,-65.77 -54.82,-120.5704 -140.61,-120.5704 -59.81,0 -124.31,24.1684 -159.44,45.6604 z m 1146.78,102.359 c -45.7,-24.25 -111.4,-52.121 -199.05,-52.121 -76.32,0 -136.13,33.828 -164.88,99.61 -16.91,39.691 -21.49,108.66 -15.56,141.129 273.99,-5.098 492.79,47.062 492.79,241.621 0,105.468 -76.3,189.98 -217.4,189.98 -238.86,0 -404.16,-252.558 -404.16,-476.41 0,-163.469 85.8,-296.85944 281.74,-296.85944 99.62,0 190.02,26.07814 244.82,58.02734 z m -9.1,425.661 c 0,-114.622 -156.2,-140.692 -354.83,-139.333 30.56,116.461 120.49,234.36 241.53,234.36 67.7,0 113.3,-33.84 113.3,-95.027 z m 417.9,344.328 -31.9,-166.68 h -105.6 l -20.1,-99.539 h 107.4 l -73.6,-374.973 c -10.9,-53.929 -15.5,-96.429 -15.5,-139.297 0,-74.9411 43,-143.902 156.2,-143.902 36.5,0 75,4.57031 98.2,13.6914 l 5.9,99.6406 c -16.9,-3.269 -38.3,-4.66 -59.8,-4.66 -48.8,0 -70.3,26.07 -70.3,70.34 0,39.808 5.9,78.109 13.7,119.199 l 69,359.961 h 177.6 l 19.7,99.539 h -177.2 l 37.9,198.699 z m 649.5,-443.852 -19.7,-99.637 h 367.2 l 18.3,99.637 z m 978.8,568.151 -196,-1031.7877 h 127 l 196,1031.7877 h -127"
         style="fill:#656263;fill-opacity:1;fill-rule:nonzero;stroke:none"
         id="path32" /><path
         d="m 12542.6,16.9023 67.6,359.4567 c 33.4,183.602 162.2,292.282 252.5,292.282 87.3,0 116.1,-54.828 116.1,-129.661 0,-31.078 -4.5,-66.218 -10.5,-95.019 L 12887,16.9023 h 127.4 l 82.7,431.6097 c 7.2,39.699 13.7,87.258 13.7,119.218 0,156.219 -99.6,206.891 -188.7,206.891 -108.2,0 -207.8,-58.43 -273.5,-162.609 h -3.2 l 18.3,145.699 h -113.4 c -9,-61.211 -18.2,-133.379 -35.1,-216.07 l -99.6,-524.7387 h 127"
         style="fill:#656263;fill-opacity:1;fill-rule:nonzero;stroke:none"
         id="path34" /><path
         d="M 13923.8,1103.42 13858,748.582 c -32,15.059 -84.1,26.039 -131.5,26.039 -261.8,0 -457.7,-242.129 -457.7,-505.141 0,-151.66 78.1,-269.48 222,-269.48 105.5,0 199.1,58 266.2,163.563 h 3.2 l -20.1,-146.6607 h 116.5 c 4.6,71.7383 17,157.5277 32,233.8597 l 162.6,852.658 z m -136.1,-720.67 c -32.1,-167.23 -149.9,-278.57 -248,-278.57 -108.8,0 -139.4,93.133 -139.4,182.23 0,197.231 138,385.403 315.6,385.403 53.5,0 96.4,-13.641 122.4,-30.563 z m 436.6,-365.8477 142.5,740.8087 h -127 L 14097.3,16.9023 Z m 111.9,867.7967 c 48.9,0 84,35.211 85.8,85.883 0,45.668 -29.1,79.398 -75.3,79.398 -45.7,0 -84,-36.92 -84,-85.89 0,-45.559 29.2,-79.391 73.5,-79.391 z m 751.7,-867.7967 c -3.2,82.6993 7.8,214.1607 32,342.5197 l 75.4,385.937 c -50.7,16.922 -128.8,29.262 -199.1,29.262 -323,0 -513,-272.68 -513,-529.82 C 14483.2,104.18 14565.9,0 14696.1,0 c 105.5,0 206.4,54.8008 287.7,208.27 h 3.2 c -9.1,-76.739 -16.9,-147.0903 -16.9,-191.3677 z m -78,422.4687 c -36.6,-197.789 -162.2,-335.191 -267.7,-335.191 -98.1,0 -127.4,80.793 -127.4,163.492 1.8,205.09 158.1,405.519 349.4,405.519 42.5,0 70.3,-5.871 88.6,-10.531 z m 425.6,-422.4687 67.6,359.4567 c 33.3,183.602 162.1,292.282 252.6,292.282 87.3,0 116,-54.828 116,-129.661 0,-31.078 -4.6,-66.218 -10.5,-95.019 l -81.3,-427.0587 h 127.5 l 82.6,431.6097 c 7.3,39.699 13.7,87.258 13.7,119.218 0,156.219 -99.5,206.891 -188.6,206.891 -108.3,0 -207.9,-58.43 -273.7,-162.609 h -3.1 l 18.3,145.699 h -113.3 c -9.2,-61.211 -18.3,-133.379 -35.1,-216.07 l -99.6,-524.7387 z m 1035.5,0 h 126.9 l 84.5,449.9107 h 113.3 c 102.3,0 154.3,-59.821 162.1,-200.52 7.8,-119.223 18.3,-227.8828 24.7,-249.3907 h 131.5 c -13.7,41.0977 -21.4,139.3277 -32.4,283.2187 -7.3,106.871 -42.5,183.52 -114.6,207.781 l 1.3,3.188 c 130.2,36.961 245.3,148.48 245.3,298.691 0,70.34 -29.3,130.149 -76.8,171.231 -55.2,50.758 -143.8,74.958 -246.6,74.958 -76.3,0 -162.1,-9.18 -224.7,-22.82 z m 303.2,925.7967 c 22.9,6.383 56.6,10.961 106.9,10.961 116.4,0 199.1,-48.847 199.1,-159.43 0,-123.8 -104.1,-229.71 -264.9,-229.71 h -113.2 l 72.1,378.179"
         style="fill:#656263;fill-opacity:1;fill-rule:nonzero;stroke:none"
         id="path36" /><path
         d="m 17719.2,774.621 c -240.3,0 -410.1,-226.57 -410.1,-470.012 0,-167.129 103.6,-304.609 289,-304.609 248,0 410.2,237.02 410.2,465.441 0,157.52 -88.6,309.18 -289.1,309.18 z m -13.7,-101.43 c 132.9,0 172.7,-120.582 172.7,-206.378 0,-173.192 -113.4,-365.911 -263.1,-365.911 -108.7,0 -174.5,87.25 -174.5,208.289 -1.8,169.969 105.5,364 264.9,364"
         style="fill:#656263;fill-opacity:1;fill-rule:nonzero;stroke:none"
         id="path38" /><path
         d="m 18553.6,774.621 c -240.2,0 -410.1,-226.57 -410.1,-470.012 C 18143.5,137.48 18247.6,0 18433,0 c 247.6,0 410.2,237.02 410.2,465.441 0,157.52 -89,309.18 -289.6,309.18 z m -13.7,-101.43 c 133.4,0 173.2,-120.582 173.2,-206.378 0,-173.192 -113.4,-365.911 -263.6,-365.911 -108.7,0 -174.4,87.25 -174.4,208.289 -1.4,169.969 105.9,364 264.8,364 z m 623.5,251.2 -32,-166.68 h -105.5 l -20.1,-99.539 h 107.4 l -73.6,-374.973 c -10.9,-53.929 -15.5,-96.429 -15.5,-139.297 C 19024.1,68.9609 19067,0 19180.2,0 c 36.6,0 75,4.57031 98.3,13.6914 l 5.9,99.6406 c -16.9,-3.269 -38.4,-4.66 -59.8,-4.66 -48.9,0 -70.4,26.07 -70.4,70.34 0,39.808 6,78.109 13.8,119.199 l 68.9,359.961 h 177.7 l 19.6,99.539 H 19257 l 37.9,198.699 -131.5,-32.019"
         style="fill:#656263;fill-opacity:1;fill-rule:nonzero;stroke:none"
         id="path40" /><path
         d="m 19443.8,52.043 c 33.8,-25.9805 104.2,-50.69144 183.6,-50.69144 156.2,0 283.2,87.28904 283.2,243.44944 0,82.672 -56.6,147.078 -139.3,194.57 -65.8,36.512 -100.9,70.34 -100.9,123.77 0,64.402 55.2,111.949 131.5,111.949 55.3,0 102.7,-18.277 128.8,-33.84 l 35.1,96.352 c -27.8,18.308 -87.2,37.019 -154.8,37.019 -156.2,0 -267.6,-99.531 -267.6,-229.691 0,-74.918 47.5,-140.688 132.8,-188.168 76.8,-43.012 102.9,-78.141 102.9,-136.59 0,-65.77 -55.3,-120.5704 -140.8,-120.5704 -59.8,0 -124.2,24.1684 -159.3,45.6604 l -35.2,-93.219"
         style="fill:#656263;fill-opacity:1;fill-rule:nonzero;stroke:none"
         id="path42" /><path
         d="m 1264.28,2263.15 v 941.78 c 0,11.85 2.07,22.24 7.58,31.34 10.73,17.83 26.11,27.45 47.2,27.45 20.14,0 36.2,-9.62 46.72,-27.45 5.06,-9.1 8.01,-19.49 8.01,-31.61 v -941.51 c 0,-12.83 -2.95,-22.88 -8.01,-30.5 -10.52,-19.48 -26.58,-28.4 -46.72,-28.4 -21.09,0 -36.47,8.92 -47.2,28.4 -5.51,7.62 -7.58,17.67 -7.58,30.5 m 976.99,211.78 v 730 c 0,11.85 3,22.24 8.06,31.34 10.52,17.83 26.07,27.45 46.72,27.45 21.1,0 36.64,-9.62 47.2,-27.45 5.03,-9.1 7.55,-19.49 7.55,-31.61 v -898.04 c 0,-68.06 -17.2,-102.37 -53.84,-102.37 -13.76,0 -24.77,5.48 -35.29,16.97 -8.49,9.8 -19.48,25.64 -31.13,46.69 l -410.62,741.31 v -746.07 c 0,-12.83 -2.77,-22.88 -7.32,-30.5 -10.78,-19.48 -26.58,-28.4 -47.41,-28.4 -20.66,0 -36.46,8.92 -47,28.4 -5.49,7.62 -7.78,17.67 -7.78,30.5 v 899.75 c 0,66.95 17.88,100.82 52.7,100.82 23.81,0 43.03,-14.46 59.32,-42.87 z m 683.97,788.79 c 82.92,0 157.41,-19.22 224.1,-59.06 37.12,-21.56 55.43,-45.39 55.43,-70.58 0,-15.85 -5.24,-29.09 -16.93,-39.66 -8.06,-7.52 -16.98,-11.42 -27.08,-11.42 -11.91,0 -31.12,6.83 -58.62,21.99 -59.82,32.55 -116.19,48.31 -169.59,48.31 -53.61,0 -101.72,-11.92 -142.94,-36.62 -44.48,-26.85 -66.48,-62.76 -66.48,-108.33 0,-32.57 12.39,-61.47 36.43,-89.63 34.63,-40.08 126.96,-106.92 277.97,-201.32 72.36,-45.18 120.03,-83.63 144.12,-113.42 31.82,-40.55 47.41,-87.3 47.41,-141.15 0,-79.26 -32.99,-143.15 -99,-190.78 -61.4,-45.12 -137.92,-67.8 -228.65,-67.8 -69.89,0 -140,16.97 -210.58,49.45 -65.31,31.61 -98.26,63.63 -98.26,96.91 0,15.56 5.93,27.95 18.75,38.26 7.32,6.41 16.49,9.62 26.11,9.62 13.29,0 27.06,-3.21 40.79,-9.62 l 76.09,-36.62 c 52.23,-24.51 104.71,-37.85 157.63,-37.85 58.2,0 108.13,13.34 148.93,40.36 38.97,24.25 58.67,58.34 58.67,100.18 0,41.66 -22,78.88 -64.18,113.08 -23.81,18.1 -89.33,63.46 -194.52,136.05 -92.8,62.35 -155.12,110.68 -185.57,145.02 -41.26,44.95 -61.66,95.96 -61.66,152.58 0,38.91 8.92,75.62 27.02,110.85 18.37,35.32 43.3,64.63 75.62,88.66 56.37,41.94 126.48,62.54 208.99,62.54 m 829.89,-111.27 v -889.3 c 0,-12.83 -2.73,-22.88 -7.8,-30.5 -10.52,-19.48 -26.8,-28.4 -49.01,-28.4 -21.53,0 -38.51,8.92 -49.03,28.4 -5.07,7.62 -7.79,17.67 -7.79,30.5 v 889.3 h -204.41 c -13.03,0 -23.12,3.11 -31.6,7.78 -18.8,11.18 -27.28,26.51 -27.28,47.46 0,20.51 8.48,36.81 27.28,47.64 8.48,4.77 19.01,7.26 31.6,7.26 h 521.96 c 12.6,0 23.18,-2.49 31.18,-7.26 18.32,-10.83 27.94,-27.13 27.94,-47.64 0,-20.95 -9.62,-36.28 -27.94,-47.46 -7.58,-4.67 -17.89,-7.78 -31.18,-7.78 z m 470.85,-889.3 v 941.78 c 0,11.85 3.25,22.24 8.01,31.34 10.58,17.83 26.17,27.45 46.78,27.45 21.09,0 36.41,-9.62 47.19,-27.45 5.03,-9.1 7.8,-19.49 7.8,-31.61 l 0.22,-941.51 c 0,-12.83 -2.99,-22.88 -8.02,-30.5 -10.78,-19.48 -26.1,-28.4 -47.19,-28.4 -20.61,0 -36.2,8.92 -46.78,28.4 -4.76,7.62 -8.01,17.67 -8.01,30.5 m 695.87,889.3 v -889.3 c 0,-12.83 -2.73,-22.88 -7.32,-30.5 -11.47,-19.48 -27.5,-28.4 -49.02,-28.4 -22.48,0 -38.5,8.92 -49.97,28.4 -4.55,7.62 -7.32,17.67 -7.32,30.5 v 889.3 h -204.41 c -12.81,0 -23.38,3.11 -31.82,7.78 -18.1,11.18 -27.28,26.51 -27.28,47.46 0,20.51 9.18,36.81 27.28,47.64 8.92,4.77 19.45,7.26 31.82,7.26 h 522.44 c 12.38,0 22.44,-2.49 30.65,-7.26 18.37,-10.83 27.98,-27.13 27.98,-47.64 0,-20.95 -9.61,-36.28 -27.98,-47.46 -7.78,-4.67 -17.83,-7.78 -30.65,-7.78 z m 449.59,-592.91 v 645.39 c 0,11.85 2.69,22.24 7.8,31.34 10.48,17.83 27.01,27.45 46.67,27.45 20.62,0 37.16,-9.62 47.22,-27.45 5.1,-9.1 7.36,-19.49 7.36,-31.61 v -648.58 c 0,-53.77 6.84,-95.25 20.6,-123.2 20.62,-42.44 50.42,-73.96 91.2,-95.16 28.41,-15.7 61.41,-23.32 99.43,-23.32 65.05,0 118.22,23.66 158.59,71.53 23.38,26.33 37.59,53.59 43.99,83.99 5.03,22.52 7.8,51.34 7.8,85.91 v 649.1 c 0,11.85 2.77,22.24 7.27,31.34 11,17.83 27.03,27.45 47.21,27.45 20.7,0 36.71,-9.62 47.2,-27.45 5.02,-9.1 7.79,-19.49 7.79,-31.61 v -645.12 c 0,-53.17 -4.59,-96.71 -14.63,-132.21 -9.19,-35.51 -24.77,-68.41 -46.77,-98.2 -28.41,-38.81 -66,-69.61 -112.25,-91.7 -45.39,-22.43 -94.84,-33.18 -146.2,-33.18 -77.42,0 -145.25,23.39 -203.87,68.25 -52.75,41.2 -87.57,93.96 -104.02,159.66 -8.76,32.65 -12.39,75.59 -12.39,127.38 m 1203.35,592.91 v -889.3 c 0,-12.83 -2.76,-22.88 -7.35,-30.5 -11.87,-19.48 -27.89,-28.4 -49.46,-28.4 -22,0 -38.54,8.92 -49.45,28.4 -5.11,7.62 -7.37,17.67 -7.37,30.5 v 889.3 h -204.4 c -12.8,0 -23.81,3.11 -31.61,7.78 -18.36,11.18 -27.54,26.51 -27.54,47.46 0,20.51 9.18,36.81 27.54,47.64 7.8,4.77 19.23,7.26 31.61,7.26 h 522.43 c 12.4,0 22,-2.49 30.67,-7.26 18.79,-10.83 27.54,-27.13 27.54,-47.64 0,-20.95 -8.75,-36.28 -27.54,-47.46 -7.8,-4.67 -17.84,-7.78 -30.67,-7.78 z m 582.02,0 v -315.72 h 252.9 c 11.96,0 22,-2.77 30.23,-7.54 18.88,-11 27.55,-26.84 27.55,-47.87 0,-20.45 -8.67,-35.78 -27.55,-46.76 -8.23,-5.62 -18.27,-7.97 -30.23,-7.97 h -252.9 v -411.25 h 357.88 c 12.82,0 22.95,-2.75 31.61,-8.04 17.83,-10.75 27.55,-26.33 27.55,-46.94 0,-21.13 -9.72,-36.89 -27.55,-47.62 -8.66,-5.03 -18.79,-6.94 -31.61,-6.94 h -400.06 c -23.81,-1.55 -41.75,4.61 -54.56,17.67 -8.67,13.09 -13.25,29.11 -12.82,49.03 v 922.97 c -1.39,22.44 4.6,40.8 17.4,53.36 11.97,9.86 28.41,14.73 49.98,13.76 h 400.06 c 12.82,0 22.95,-2.49 31.61,-7.26 17.83,-10.83 27.55,-27.13 27.55,-47.64 0,-20.95 -9.72,-36.28 -27.55,-47.46 -8.23,-4.67 -18.36,-7.78 -31.61,-7.78 z m 1483.37,-593.87 v 355.39 c 0,101.48 27.02,182.95 81.59,243.68 30.22,32.98 65.99,58.87 109.04,77.23 42.62,19.22 86.18,28.84 131.47,28.84 44.52,0 88.52,-9.62 130.61,-27.45 42.18,-18.54 77.96,-43.12 106.36,-75.17 24.76,-28.57 44.86,-63.47 59.58,-103.32 14.64,-40.32 22,-82 22,-123.21 v -401.01 c 0,-42.33 -8.75,-85.37 -24.76,-128.23 -17.42,-43.04 -39.42,-78.98 -67.83,-107.9 -59.58,-62 -135.19,-93.18 -225.96,-93.18 -94.32,0 -173.22,34.31 -236.45,103.05 -34.38,37.42 -57.25,77.93 -69.19,120.96 -11,37.58 -16.46,81.33 -16.46,130.32 m 530.67,-8.46 v 367.49 c 0,72.81 -16.55,128.51 -50.42,166.09 -40.79,46.5 -94.39,69.6 -161.35,69.6 -67.3,0 -121.43,-24.23 -160.41,-71.87 -32.9,-40 -48.5,-96.44 -48.5,-169.1 v -353.75 c 0,-83.65 19.23,-144.95 58.64,-183.75 40.28,-39.99 91.2,-60.43 152.61,-60.43 67.82,0 123.24,24.93 163.09,75.34 31.17,37.59 46.34,91.44 46.34,160.38 m 502.24,602.33 V 2836.73 H 10031 c 12.3,0 22.4,-2.77 31.1,-7.54 18.4,-11 28,-26.84 28,-47.87 0,-20.45 -9.6,-35.78 -28,-46.76 -7.7,-5.62 -17.8,-7.97 -31.1,-7.97 h -357.91 v -463.44 c 0,-12.83 -2.77,-22.88 -7.36,-30.5 -11.43,-19.48 -27.03,-28.4 -47.2,-28.4 -20.61,0 -36.21,8.92 -47.22,28.4 -5.44,7.62 -7.26,17.67 -7.26,30.5 v 932.32 c -1.4,22.44 4.59,40.8 17.41,53.36 11.44,9.86 28.42,14.73 49.44,13.76 h 400.1 c 12.3,0 22.4,-2.49 31.1,-7.26 18.4,-10.83 28,-27.13 28,-47.64 0,-20.95 -9.6,-36.28 -28,-47.46 -7.7,-4.67 -17.8,-7.78 -31.1,-7.78 z m 1647.41,-148.07 v -741.23 c 0,-12.83 -2.2,-22.88 -6.9,-30.5 -11.4,-19.48 -26.5,-28.4 -47.2,-28.4 -21,0 -36.2,8.92 -47.6,28.4 -4.6,7.62 -7.8,17.67 -7.8,30.5 v 899.75 c 0,66.95 18.3,100.82 54.5,100.82 21.1,0 40.8,-15.51 59.6,-45.99 l 264.8,-439.62 265,439.62 c 18.8,30.48 38.9,45.99 59.5,45.99 36.2,0 54.5,-33.87 54.5,-100.82 v -899.75 c 0,-12.83 -3.2,-22.88 -8.2,-30.5 -10.6,-19.48 -26.6,-28.4 -46.7,-28.4 -20.7,0 -36.7,8.92 -47.2,28.4 -5.1,7.62 -8.3,17.67 -8.3,30.5 v 741.23 l -192.9,-320.66 c -10.6,-16.97 -21.1,-32.13 -33,-46.07 -11.5,-14.47 -26.1,-22 -42.7,-22 -16,0 -30.6,7.53 -43,22 -11,13.94 -22,29.1 -32,46.07 z M 12753,2459.71 h -380.8 l -69.2,-214.76 c -8.7,-27.44 -26.6,-40.96 -53.6,-40.96 -15.1,0 -28.4,5.74 -39.4,17.41 -10.1,10.74 -15.2,23.38 -15.2,36.21 0,6.68 1.4,14.44 4.2,21.45 l 307,916.41 c 14.2,45.4 35.8,68.25 61.9,68.25 23.3,0 38.9,-9.62 47.7,-28.84 4.6,-10.55 10,-24.07 16,-41.73 l 297.4,-914.09 c 2.3,-8.39 4.1,-15.5 4.1,-22.16 0,-13.67 -5.5,-25.88 -14.7,-36.87 -10.9,-11.03 -24.2,-16.04 -40.2,-16.04 -26.6,0 -44.5,13.52 -53.7,41.49 z m -344.1,109.71 h 310.2 l -151.2,469.15 z m 1280.4,-94.49 v 730 c 0,11.85 2.2,22.24 7.3,31.34 10.5,17.83 26.5,27.45 46.7,27.45 20.6,0 36.2,-9.62 47.2,-27.45 5.6,-9.1 7.4,-19.49 7.4,-31.61 v -898.04 c 0,-68.06 -17.4,-102.37 -53.6,-102.37 -13.4,0 -25.2,5.48 -35.4,16.97 -9.2,9.8 -19.2,25.64 -31.6,46.69 l -410.1,741.31 v -746.07 c 0,-12.83 -2.3,-22.88 -7.8,-30.5 -10.1,-19.48 -26.5,-28.4 -47.2,-28.4 -20.1,0 -36.2,8.92 -47.2,28.4 -5,7.62 -7.8,17.67 -7.8,30.5 v 899.75 c 0,66.95 17.9,100.82 53.2,100.82 23.3,0 43.1,-14.46 59.5,-42.87 z m 890.8,-15.22 h -380.8 l -69.7,-214.76 c -8.2,-27.44 -25.6,-40.96 -53.1,-40.96 -15.2,0 -28.9,5.74 -39.9,17.41 -9.6,10.74 -14.2,23.38 -14.2,36.21 0,6.68 0.9,14.44 3.2,21.45 l 307.5,916.41 c 15.1,45.4 35.7,68.25 61.4,68.25 23.4,0 39.4,-9.62 48.1,-28.84 4.6,-10.55 10.1,-24.07 15.6,-41.73 l 297.9,-914.09 c 2.3,-8.39 3.7,-15.5 3.7,-22.16 0,-13.67 -4.6,-25.88 -14.8,-36.87 -10.4,-11.03 -24.2,-16.04 -40.2,-16.04 -26.6,0 -44.5,13.52 -52.8,41.49 z m -344.6,109.71 h 311.1 l -152.1,469.15 z m 1236.8,-254.08 v 414.89 h -98 c -12.4,0 -22.5,3.21 -30.8,7.51 -18.8,11.01 -27.9,27.28 -27.9,47.04 0,21.3 9.1,37.32 27.9,48.31 8.3,5.03 17.9,7.81 30.8,7.81 h 140.2 c 24.2,0 40.8,-6.24 51.8,-18.37 10.5,-10.73 15.1,-29.35 15.1,-55.26 v -489.22 c 0,-31.19 -5.9,-50.41 -17.5,-59.58 -9.6,-8.74 -25.6,-12.67 -48.5,-12.67 h -277.3 c -84.3,-1.55 -150.3,14.23 -198.3,46.78 -66.5,47.45 -99,125.3 -97.7,233.19 v 496.96 c -2.3,188.42 96.7,281.95 296,279.86 h 285.1 c 12.3,0 22.9,-2.49 31.1,-7.26 18.8,-10.83 27.1,-27.13 27.1,-47.64 0,-20.95 -8.3,-36.28 -27.1,-47.46 -8.2,-4.67 -18.8,-7.78 -31.1,-7.78 h -307.1 c -60,0 -103.1,-14.91 -129.2,-45.21 -23.3,-26.75 -35.2,-73.26 -35.2,-140.8 v -464.13 c 0,-61.66 10.5,-106.77 30.7,-135.09 17.4,-25.53 41.6,-40.87 71.9,-46.58 16.5,-3.31 37.6,-5.3 61.8,-5.3 z m 503.6,837.11 v -315.72 h 252.1 c 12.4,0 22.9,-2.77 31.1,-7.54 18.8,-11 28,-26.84 28,-47.87 0,-20.45 -9.2,-35.78 -28,-46.76 -8.2,-5.62 -18.7,-7.97 -31.1,-7.97 h -252.1 v -411.25 h 357.9 c 12.9,0 23,-2.75 30.8,-8.04 18.8,-10.75 27.9,-26.33 27.9,-46.94 0,-21.13 -9.1,-36.89 -27.9,-47.62 -7.8,-5.03 -17.9,-6.94 -30.8,-6.94 h -400 c -24.3,-1.55 -41.7,4.61 -54.1,17.67 -9.6,13.09 -14.2,29.11 -13.3,49.03 v 922.97 c -0.9,22.44 5.1,40.8 17.5,53.36 11.4,9.86 28.4,14.73 49.9,13.76 h 400 c 12.9,0 23,-2.49 30.8,-7.26 18.8,-10.83 27.9,-27.13 27.9,-47.64 0,-20.95 -9.1,-36.28 -27.9,-47.46 -7.4,-4.67 -17.9,-7.78 -30.8,-7.78 z m 752.1,-148.07 v -741.23 c 0,-12.83 -2.8,-22.88 -7.8,-30.5 -11,-19.48 -26.6,-28.4 -46.8,-28.4 -20.6,0 -36.6,8.92 -47.2,28.4 -5.5,7.62 -7.8,17.67 -7.8,30.5 v 899.75 c 0,66.95 17.4,100.82 54.1,100.82 20.7,0 40.3,-15.51 59.1,-45.99 l 265.4,-439.62 264.8,439.62 c 18.3,30.48 38.5,45.99 59.1,45.99 36.7,0 54.6,-33.87 54.6,-100.82 v -899.75 c 0,-12.83 -2.8,-22.88 -7.4,-30.5 -11,-19.48 -27,-28.4 -48.1,-28.4 -19.7,0 -35.7,8.92 -46.7,28.4 -4.6,7.62 -7.8,17.67 -7.8,30.5 v 741.23 l -192.9,-320.66 c -10.2,-16.97 -21.1,-32.13 -33,-46.07 -12,-14.47 -26.6,-22 -42.6,-22 -16.1,0 -30.8,7.53 -43.2,22 -11.4,13.94 -21.9,29.1 -32,46.07 z m 1095.2,148.07 v -315.72 h 253 c 11.9,0 22.4,-2.77 30.6,-7.54 18.4,-11 28,-26.84 28,-47.87 0,-20.45 -9.6,-35.78 -28,-46.76 -8.2,-5.62 -18.7,-7.97 -30.6,-7.97 h -253 v -411.25 h 357.9 c 12.3,0 22.9,-2.75 31.2,-8.04 18.7,-10.75 27.5,-26.33 27.5,-46.94 0,-21.13 -8.8,-36.89 -27.5,-47.62 -8.3,-5.03 -18.9,-6.94 -31.2,-6.94 H 17781 c -23.3,-1.55 -41.7,4.61 -53.5,17.67 -9.7,13.09 -14.3,29.11 -14.3,49.03 v 922.97 c 0,22.44 5.5,40.8 18.3,53.36 11.4,9.86 28,14.73 49.5,13.76 h 400.1 c 12.3,0 22.9,-2.49 31.2,-7.26 18.7,-10.83 27.5,-27.13 27.5,-47.64 0,-20.95 -8.8,-36.28 -27.5,-47.46 -7.8,-4.67 -17.9,-7.78 -31.2,-7.78 z m 1173.6,-677.52 v 730 c 0,11.85 2.3,22.24 7.8,31.34 10.5,17.83 26.6,27.45 47.2,27.45 20.6,0 36.2,-9.62 46.2,-27.45 5.5,-9.1 8.8,-19.49 8.8,-31.61 v -898.04 c 0,-68.06 -17.9,-102.37 -54.6,-102.37 -13.3,0 -24.7,5.48 -35.3,16.97 -8.7,9.8 -19.2,25.64 -31.1,46.69 l -410.6,741.31 v -746.07 c 0,-12.83 -2.3,-22.88 -7.4,-30.5 -10.4,-19.48 -26.6,-28.4 -47.2,-28.4 -20.6,0 -36.2,8.92 -47.6,28.4 -4.6,7.62 -7.4,17.67 -7.4,30.5 v 899.75 c 0,66.95 18,100.82 52.8,100.82 23.8,0 43.4,-14.46 59,-42.87 z m 694.7,677.52 v -889.3 c 0,-12.83 -2.8,-22.88 -7.8,-30.5 -10.5,-19.48 -27,-28.4 -48.6,-28.4 -22,0 -38.4,8.92 -49.4,28.4 -5.1,7.62 -7.8,17.67 -7.8,30.5 v 889.3 h -204.4 c -12.8,0 -23.9,3.11 -31.2,7.78 -18.8,11.18 -27.5,26.51 -27.5,47.46 0,20.51 8.7,36.81 27.5,47.64 8.8,4.77 18.8,7.26 31.2,7.26 h 522.8 c 11.5,0 22,-2.49 30.8,-7.26 18.8,-10.83 27,-27.13 27,-47.64 0,-20.95 -8.2,-36.28 -27,-47.46 -8.3,-4.67 -18.4,-7.78 -30.8,-7.78 h -204.8"
         style="fill:#231f20;fill-opacity:1;fill-rule:nonzero;stroke:none"
         id="path44" /><path
         d="m 19962.4,3794.81 h 33.2 v 93.07 h -33.2 v -93.07"
         style="fill:#231f20;fill-opacity:1;fill-rule:nonzero;stroke:none"
         id="path46" /></g></g></svg>
